{
  "accessors": [
    {
      "bufferView": 2,
      "componentType": 5126,
      "count": 23275,
      "max": [3.8663814067840576, 4.871109962463379, 2.0810840129852295],
      "min": [-4.186964511871338, -3.8433430194854736, -2.0806164741516113],
      "type": "VEC3"
    },
    {
      "bufferView": 2,
      "byteOffset": 279300,
      "componentType": 5126,
      "count": 23275,
      "max": [0.9999995231628418, 1.0, 1.0],
      "min": [-0.9999995827674866, -1.0, -1.0],
      "type": "VEC3"
    },
    {
      "bufferView": 3,
      "componentType": 5126,
      "count": 23275,
      "max": [1.0, 0.9999920129776001, 1.0, 1.0],
      "min": [-1.0, -0.9999920129776001, -1.0, -1.0],
      "type": "VEC4"
    },
    {
      "bufferView": 1,
      "componentType": 5126,
      "count": 23275,
      "max": [1.9026274681091309, 1.7532455921173096],
      "min": [0.00011152029037475586, 0.0028632283210754395],
      "type": "VEC2"
    },
    {
      "bufferView": 1,
      "byteOffset": 186200,
      "componentType": 5126,
      "count": 23275,
      "max": [1.9026274681091309, 1.7532455921173096],
      "min": [0.00011152029037475586, 0.0028632283210754395],
      "type": "VEC2"
    },
    {
      "bufferView": 0,
      "componentType": 5125,
      "count": 119646,
      "type": "SCALAR"
    }
  ],
  "asset": {
    "extras": {
      "author": "kilianM (https://sketchfab.com/kilianM)",
      "license": "CC-BY-4.0 (http://creativecommons.org/licenses/by/4.0/)",
      "source": "https://sketchfab.com/3d-models/headset-dc79d4543a634103a12c556998de8b43",
      "title": "Headset"
    },
    "generator": "Sketchfab-15.24.0",
    "version": "2.0"
  },
  "bufferViews": [
    {
      "buffer": 0,
      "byteLength": 478584,
      "name": "floatBufferViews",
      "target": 34963
    },
    {
      "buffer": 0,
      "byteLength": 372400,
      "byteOffset": 478584,
      "byteStride": 8,
      "name": "floatBufferViews",
      "target": 34962
    },
    {
      "buffer": 0,
      "byteLength": 558600,
      "byteOffset": 850984,
      "byteStride": 12,
      "name": "floatBufferViews",
      "target": 34962
    },
    {
      "buffer": 0,
      "byteLength": 372400,
      "byteOffset": 1409584,
      "byteStride": 16,
      "name": "floatBufferViews",
      "target": 34962
    }
  ],
  "buffers": [
    {
      "byteLength": 1781984,
      "uri": ".bin"
    }
  ],
  "images": [
    {
      "uri": "textures/headset_mat_metallicRoughness.png"
    },
    {
      "uri": "textures/headset_mat_normal.png"
    }
  ],
  "materials": [
    {
      "doubleSided": true,
      "name": "headset_mat",
      "normalTexture": {
        "index": 1
      },
      "pbrMetallicRoughness": {
        "baseColorFactor": [0.0, 0.0, 0.0, 1.0],
        "metallicRoughnessTexture": {
          "index": 0
        }
      }
    }
  ],
  "meshes": [
    {
      "name": "razer_headset_mat_0",
      "primitives": [
        {
          "attributes": {
            "NORMAL": 1,
            "POSITION": 0,
            "TANGENT": 2,
            "TEXCOORD_0": 3,
            "TEXCOORD_1": 4
          },
          "indices": 5,
          "material": 0,
          "mode": 4
        }
      ]
    }
  ],
  "nodes": [
    {
      "children": [1],
      "matrix": [
        1.0, 0.0, 0.0, 0.0, 0.0, 2.220446049250313e-16, -1.0, 0.0, 0.0, 1.0,
        2.220446049250313e-16, 0.0, 0.0, 0.0, 0.0, 1.0
      ],
      "name": "Sketchfab_model"
    },
    {
      "children": [2],
      "matrix": [
        0.009999999776482582, 0.0, 0.0, 0.0, 0.0, 0.0, 0.009999999776482582,
        0.0, 0.0, -0.009999999776482582, 0.0, 0.0, 0.0, 0.0, 0.0, 1.0
      ],
      "name": "77eae65a608246eca277b98d870d1002.fbx"
    },
    {
      "children": [3],
      "name": "RootNode"
    },
    {
      "children": [4],
      "matrix": [
        1.0, 0.0, 0.0, 0.0, 0.0, 0.9999999999999867, 1.6292067073209113e-7, 0.0,
        0.0, -1.6292067073209113e-7, 0.9999999999999867, 0.0,
        0.1602916568517685, -0.5138834714889526, -0.0002337694022571668, 1.0
      ],
      "name": "razer"
    },
    {
      "mesh": 0,
      "name": "razer_headset_mat_0"
    }
  ],
  "samplers": [
    {
      "magFilter": 9729,
      "minFilter": 9987,
      "wrapS": 10497,
      "wrapT": 10497
    }
  ],
  "scene": 0,
  "scenes": [
    {
      "name": "Sketchfab_Scene",
      "nodes": [0]
    }
  ],
  "textures": [
    {
      "sampler": 0,
      "source": 0
    },
    {
      "sampler": 0,
      "source": 1
    }
  ]
}
